# xmcd
#
# Track frame offsets: 
#        150
#        13890
#        29385
#        47467
#        70152
#        87608
#        104550
#        129839
#        145586
#        160304
#        175531
#        193462
#        210210
#        226750
#
# Disc length: 3384 seconds
#
# Revision: 0
# Processed by: cddbd v1.5.2PL0 Copyright (c) Steve Scherf et al.
# Submitted via: ExactAudioCopy v1.0b3
#
DISCID=b60d360e
DTITLE=Eddie Martin - Looking Forward Looking Back
DYEAR=2012
DGENRE=Blues
TTITLE0=Frog in The Long Grass
TTITLE1=Sorry for The Rain
TTITLE2=Wannabe Me
TTITLE3=Let it Slide
TTITLE4=Tough Times
TTITLE5=Supermodel
TTITLE6=Looking Forward Looking Back
TTITLE7=Jumpy Legs
TTITLE8=Zombie Attack
TTITLE9=Headspace
TTITLE10=She's A He
TTITLE11=I Want That Girl
TTITLE12=Funky One Too
TTITLE13=Second Chance Romance
EXTD=
EXTT0=
EXTT1=
EXTT2=
EXTT3=
EXTT4=
EXTT5=
EXTT6=
EXTT7=
EXTT8=
EXTT9=
EXTT10=
EXTT11=
EXTT12=
EXTT13=
PLAYORDER=
